<?xml version="1.0" encoding="UTF-8"?>
<!DOCTYPE svg PUBLIC "-//W3C//DTD SVG 1.1//EN" "http://www.w3.org/Graphics/SVG/1.1/DTD/svg11.dtd">
<!-- Creator: CorelDRAW -->
<svg xmlns="http://www.w3.org/2000/svg" xml:space="preserve" width="26mm" height="6.7mm" version="1.1" style="shape-rendering:geometricPrecision; text-rendering:geometricPrecision; image-rendering:optimizeQuality; fill-rule:evenodd; clip-rule:evenodd"
viewBox="0 0 2600 670"
 xmlns:xlink="http://www.w3.org/1999/xlink"
 xmlns:xodm="http://www.corel.com/coreldraw/odm/2003">
 <defs>
  <style type="text/css">
   <![CDATA[
    .fil0 {fill:#F07F00;fill-rule:nonzero}
    .fil1 {fill:white;fill-rule:nonzero}
   ]]>
  </style>
 </defs>
 <g id="Layer_x0020_1">
  <metadata id="CorelCorpID_0Corel-Layer"/>
  <polygon class="fil0" points="30,673.67 291.8,673.67 450.45,326.3 188.39,326.3 "/>
  <polygon class="fil0" points="620.22,7.33 357.71,7.33 661.19,673.67 923.67,673.67 "/>
  <polygon class="fil1" points="1021.77,672.25 1021.77,137.86 839.93,137.86 839.93,8.75 1349.48,8.75 1349.48,137.86 1168.15,137.86 1168.15,672.25 "/>
  <polygon class="fil1" points="1424.61,672.25 1424.61,8.75 1908.48,8.75 1908.48,129.4 1562.53,129.4 1562.53,259.63 1884.45,259.63 1884.45,388.28 1562.53,388.28 1562.53,551.98 1920.78,551.98 1920.78,672.25 "/>
  <polygon class="fil1" points="1956.95,672.25 2176.07,326.02 1977.52,8.75 2137.26,8.75 2265.86,221.88 2391.82,8.75 2550.29,8.75 2350.85,330.97 2570,672.25 2405.41,672.25 2263.22,442.76 2120.6,672.25 "/>
 </g>
</svg>
