<?xml version="1.0" encoding="UTF-8"?>
<!DOCTYPE svg PUBLIC "-//W3C//DTD SVG 1.1//EN" "http://www.w3.org/Graphics/SVG/1.1/DTD/svg11.dtd">
<!-- Creator: CorelDRAW -->
<svg xmlns="http://www.w3.org/2000/svg" xml:space="preserve" width="1in" height="0.262331in" version="1.1" style="shape-rendering:geometricPrecision; text-rendering:geometricPrecision; image-rendering:optimizeQuality; fill-rule:evenodd; clip-rule:evenodd"
viewBox="0 0 1000 262.33"
 xmlns:xlink="http://www.w3.org/1999/xlink"
 xmlns:xodm="http://www.corel.com/coreldraw/odm/2003">
 <defs>
  <style type="text/css">
   <![CDATA[
    .fil1 {fill:black;fill-rule:nonzero}
    .fil0 {fill:#F07F00;fill-rule:nonzero}
   ]]>
  </style>
 </defs>
 <g id="Layer_x0020_1">
  <metadata id="CorelCorpID_0Corel-Layer"/>
  <g id="_1355173370688">
   <polygon class="fil0" points="0,264.5 103.07,264.5 165.53,127.74 62.36,127.74 "/>
   <polygon class="fil0" points="232.37,2.16 129.02,2.16 248.5,264.5 351.84,264.5 "/>
   <polygon class="fil1" points="390.46,263.94 390.46,53.55 318.87,53.55 318.87,2.72 519.48,2.72 519.48,53.55 448.09,53.55 448.09,263.94 "/>
   <polygon class="fil1" points="549.06,263.94 549.06,2.72 739.56,2.72 739.56,50.22 603.36,50.22 603.36,101.49 730.1,101.49 730.1,152.14 603.36,152.14 603.36,216.59 744.4,216.59 744.4,263.94 "/>
   <polygon class="fil1" points="758.64,263.94 844.91,127.63 766.74,2.72 829.63,2.72 880.26,86.63 929.85,2.72 992.24,2.72 913.72,129.58 1000,263.94 935.2,263.94 879.22,173.59 823.07,263.94 "/>
  </g>
 </g>
</svg>
