<?xml version="1.0" encoding="UTF-8"?>
<!DOCTYPE svg PUBLIC "-//W3C//DTD SVG 1.1//EN" "http://www.w3.org/Graphics/SVG/1.1/DTD/svg11.dtd">
<!-- Creator: CorelDRAW -->
<svg xmlns="http://www.w3.org/2000/svg" xml:space="preserve" width="1in" height="0.188598in" version="1.1" style="shape-rendering:geometricPrecision; text-rendering:geometricPrecision; image-rendering:optimizeQuality; fill-rule:evenodd; clip-rule:evenodd"
viewBox="0 0 1000 188.6"
 xmlns:xlink="http://www.w3.org/1999/xlink"
 xmlns:xodm="http://www.corel.com/coreldraw/odm/2003">
 <defs>
  <style type="text/css">
   <![CDATA[
    .fil0 {fill:#999999;fill-rule:nonzero}
   ]]>
  </style>
 </defs>
 <g id="Layer_x0020_1">
  <metadata id="CorelCorpID_0Corel-Layer"/>
  <g id="_1358479440544">
   <path class="fil0" d="M25.49 99.33l7.1 6.84 7.78 -7.37 -7.78 -7.37 -7.1 6.72 -7.22 -6.72 -7.78 7.37 7.78 7.37 7.22 -6.84zm33.7 54.56c-4.53,0 -8.5,-0.53 -8.5,-4.02l0 -28.54c-6.06,-2.96 -14.72,-5.51 -24.63,-5.51 -17.25,0 -25.6,8.06 -25.6,22.8l0 4.03c0,14.32 7.9,22.38 24.92,22.38l1.12 0c7.62,0 15.01,-1.75 19.94,-3.5 3.3,2.43 8.07,3.5 12.76,3.5 1.29,0 2.25,-0.95 2.25,-2.13l0 -6.84c0,-1.21 -0.96,-2.17 -2.25,-2.17zm-20.94 -24.39l0 22.26c-2.29,1.06 -6.54,2.13 -11.76,2.13l-0.44 0c-9.03,0 -13.16,-4.14 -13.16,-11.93l0 -2.39c0,-8.05 4.41,-12.19 13.89,-12.19 5.81,0 10.03,1.33 11.47,2.13zm62.55 -13.41c-9.75,0 -18.38,2.54 -24.64,5.66l0 27.05c0,4.56 -1.69,5.09 -8.47,5.09l-8.5 0c-1.28,0 -2.25,0.95 -2.25,2.17l0 6.84c0,1.18 0.96,2.13 2.25,2.13l8.5 0c7.63,0 13.17,-0.53 16.54,-3.08 4.53,1.75 10.47,3.23 16.17,3.23l1.13 0c16.97,0 24.91,-7.94 24.91,-22.41l0 -3.88c0,-14.74 -8.34,-22.79 -25.63,-22.79zm13.16 23.74l0 2.28c0,7.75 -4.09,11.78 -13.16,11.78l-0.41 0c-5.26,0 -9.63,-1.06 -11.76,-2.13l0 -22c1.57,-0.65 5.78,-2.13 11.6,-2.13 9.34,0 13.72,4.03 13.72,12.2zm71.33 14.06c-4.09,0 -6.38,-0.95 -6.38,-4.02l0 -10.98c0,-14.89 -8.22,-22.79 -25.6,-22.79 -5.98,0 -13.32,1.48 -16.17,2.43l0 11.24c3.29,-1.06 10.47,-2.13 15.57,-2.13 9.35,0 13.6,4.03 13.6,12.2l0 8.96c0,4.56 -1.41,5.09 -8.34,5.09l-23.8 0 0 11.13 23.8 0c7.62,0 13.16,-0.53 16.69,-3.23 2.69,2.28 6.54,3.23 10.63,3.23 1.28,0 2.25,-0.95 2.25,-2.13l0 -6.84c0,-1.21 -0.96,-2.17 -2.25,-2.17zm39.2 -54.56l7.1 6.84 7.91 -7.37 -7.91 -7.37 -7.1 6.84 -7.06 -6.84 -7.94 7.37 7.94 7.37 7.06 -6.84zm31.98 54.56l-9.47 0c2.13,-3.07 3.13,-6.95 3.13,-11.78l0 -3.76c0,-14.74 -8.95,-22.53 -25.48,-22.53 -16.41,0 -25.48,7.79 -25.48,22.53l0 3.76c0,4.82 1.12,8.7 3.25,11.78l-17.13 0c-1.28,0 -2.25,0.95 -2.25,2.17l0 6.84c0,1.18 0.96,2.13 2.25,2.13l71.18 0c1.28,0 2.28,-0.95 2.28,-2.13l0 -6.84c0,-1.21 -1,-2.17 -2.28,-2.17zm-44.86 -11.13l0 -3.61c0,-7.22 4.41,-11.51 13.04,-11.78 8.62,0.26 13,4.56 13,11.78l0 3.61c0,6.72 -4.54,11.02 -13,11.13 -8.51,-0.11 -13.04,-4.41 -13.04,-11.13zm60.59 -43.43l7.06 6.84 7.78 -7.37 -7.78 -7.37 -7.06 6.72 -7.22 -6.72 -7.78 7.37 7.78 7.37 7.22 -6.84zm22.19 54.56c-4.49,0 -8.46,-0.53 -8.46,-4.02l0 -32.3 -12.48 2.96 0 28.27c0,4.56 -1.52,5.09 -8.47,5.09l-8.5 0c-1.28,0 -2.24,0.95 -2.24,2.17l0 6.84c0,1.18 0.96,2.13 2.24,2.13l8.5 0c7.91,0 13.56,-0.53 16.97,-3.35 3.25,2.4 7.78,3.35 12.44,3.35 1.28,0 2.29,-0.95 2.29,-2.13l0 -6.84c0,-1.21 -1,-2.17 -2.29,-2.17zm73.59 0c-2.69,0 -5.5,-0.53 -7.91,-1.48 1,-2.81 1.56,-6 1.56,-9.65l0 -3.88c0,-14.74 -8.34,-22.79 -25.64,-22.79 -9.75,0 -18.37,2.54 -24.63,5.66l0 27.05c0,4.56 -1.69,5.09 -8.47,5.09l-8.5 0c-1.28,0 -2.24,0.95 -2.24,2.17l0 6.84c0,1.18 0.96,2.13 2.24,2.13l8.5 0c7.63,0 13.17,-0.53 16.54,-3.08 4.53,1.75 10.47,3.23 16.17,3.23l1.13 0c7.34,0 12.88,-1.48 16.97,-4.29 3.81,2.66 8.63,4.14 14.29,4.14 1.28,0 2.28,-0.95 2.28,-2.13l0 -6.84c0,-1.21 -1,-2.17 -2.28,-2.17zm-18.82 -14.06l0 2.28c0,7.75 -4.09,11.78 -13.16,11.78l-0.4 0c-5.26,0 -9.63,-1.06 -11.76,-2.13l0 -22c1.57,-0.65 5.78,-2.13 11.6,-2.13 9.35,0 13.72,4.03 13.72,12.2zm47.43 10.3l0 -59.34 -12.47 2.92 0 55.09c0,4.56 -1.57,5.09 -8.47,5.09l-7.66 0c-1.29,0 -2.25,0.95 -2.25,2.17l0 6.84c0,1.18 0.96,2.13 2.25,2.13l7.66 0c14.28,0 20.94,-1.86 20.94,-14.89zm16.97 14.89l12.44 0 0 -74.24 -12.44 2.92 0 71.31zm71.18 -65.69l7.1 6.84 7.78 -7.37 -7.78 -7.37 -7.1 6.72 -7.22 -6.72 -7.79 7.37 7.79 7.37 7.22 -6.84zm33.7 54.56c-4.54,0 -8.5,-0.53 -8.5,-4.02l0 -28.54c-6.06,-2.96 -14.73,-5.51 -24.64,-5.51 -17.25,0 -25.59,8.06 -25.59,22.8l0 4.03c0,14.32 7.9,22.38 24.91,22.38l1.13 0c7.62,0 15,-1.75 19.94,-3.5 3.29,2.43 8.06,3.5 12.76,3.5 1.28,0 2.25,-0.95 2.25,-2.13l0 -6.84c0,-1.21 -0.96,-2.17 -2.25,-2.17zm-20.94 -24.39l0 22.26c-2.29,1.06 -6.54,2.13 -11.75,2.13l-0.44 0c-9.03,0 -13.16,-4.14 -13.16,-11.93l0 -2.39c0,-8.05 4.41,-12.19 13.88,-12.19 5.82,0 10.03,1.33 11.47,2.13zm58.86 24.39c-4.49,0 -8.46,-0.53 -8.46,-4.02l0 -32.3 -12.48 2.96 0 28.27c0,4.56 -1.53,5.09 -8.47,5.09l-8.5 0c-1.29,0 -2.25,0.95 -2.25,2.17l0 6.84c0,1.18 0.96,2.13 2.25,2.13l8.5 0c7.9,0 13.56,-0.53 16.97,-3.35 3.25,2.4 7.78,3.35 12.44,3.35 1.28,0 2.29,-0.95 2.29,-2.13l0 -6.84c0,-1.21 -1,-2.17 -2.29,-2.17zm-26.44 27.09l-7.1 -6.84 -7.91 7.37 7.91 7.22 7.1 -6.69 7.06 6.69 7.94 -7.22 -7.94 -7.37 -7.06 6.84zm54.17 -82.18l-8.19 -7.75 -8.22 7.75 8.22 7.79 8.19 -7.79zm10.19 55.09c-4.49,0 -8.46,-0.53 -8.46,-4.02l0 -32.3 -12.48 2.96 0 28.27c0,4.56 -1.52,5.09 -8.47,5.09l-8.5 0c-1.28,0 -2.24,0.95 -2.24,2.17l0 6.84c0,1.18 0.96,2.13 2.24,2.13l8.5 0c7.91,0 13.56,-0.53 16.97,-3.35 3.25,2.4 7.78,3.35 12.44,3.35 1.29,0 2.29,-0.95 2.29,-2.13l0 -6.84c0,-1.21 -1,-2.17 -2.29,-2.17zm39.2 -54.56l7.1 6.84 7.9 -7.37 -7.9 -7.37 -7.1 6.84 -7.06 -6.84 -7.94 7.37 7.94 7.37 7.06 -6.84zm31.98 54.56l-9.47 0c2.13,-3.07 3.13,-6.95 3.13,-11.78l0 -3.76c0,-14.74 -8.95,-22.53 -25.48,-22.53 -16.41,0 -25.48,7.79 -25.48,22.53l0 3.76c0,4.82 1.13,8.7 3.25,11.78l-17.13 0c-1.28,0 -2.24,0.95 -2.24,2.17l0 6.84c0,1.18 0.96,2.13 2.24,2.13l71.18 0c1.28,0 2.28,-0.95 2.28,-2.13l0 -6.84c0,-1.21 -1,-2.17 -2.28,-2.17zm-44.86 -11.13l0 -3.61c0,-7.22 4.41,-11.51 13.04,-11.78 8.62,0.26 13,4.56 13,11.78l0 3.61c0,6.72 -4.53,11.02 -13,11.13 -8.51,-0.11 -13.04,-4.41 -13.04,-11.13zm60.58 -43.43l7.06 6.84 7.78 -7.37 -7.78 -7.37 -7.06 6.72 -7.22 -6.72 -7.78 7.37 7.78 7.37 7.22 -6.84zm22.19 54.56c-4.5,0 -8.47,-0.53 -8.47,-4.02l0 -32.3 -12.48 2.96 0 28.27c0,4.56 -1.52,5.09 -8.46,5.09l-8.5 0c-1.29,0 -2.25,0.95 -2.25,2.17l0 6.84c0,1.18 0.96,2.13 2.25,2.13l8.5 0c7.9,0 13.56,-0.53 16.97,-3.35 3.25,2.4 7.79,3.35 12.44,3.35 1.28,0 2.28,-0.95 2.28,-2.13l0 -6.84c0,-1.21 -1,-2.17 -2.28,-2.17zm28.61 -3.76l0 -59.34 -12.48 2.92 0 55.09c0,4.56 -1.56,5.09 -8.46,5.09l-7.66 0c-1.28,0 -2.25,0.95 -2.25,2.17l0 6.84c0,1.18 0.96,2.13 2.25,2.13l7.66 0c14.28,0 20.94,-1.86 20.94,-14.89zm16.97 14.89l12.44 0 0 -74.24 -12.44 2.92 0 71.31zm88.03 -11.13l-13.88 0c-7.22,0 -11.15,-3.5 -11.15,-9.38l0 -2.66c0,-11.4 13,-12.19 22.79,-7.52l0 -9.12c-17.42,-6.42 -35.27,-2.66 -35.27,16.22l0 0.95c0,4.67 1.56,8.7 4.69,11.67 -5.26,0.38 -8.67,1.33 -11.19,2.01l0 10.83 0.84 0.42c2.96,-1.86 6.94,-2.28 15.17,-2.28l28 0 0 -11.13zm10.63 11.13l12.44 0 0 -74.24 -12.44 2.92 0 71.31zm88.31 -11.13c-6.94,0 -8.62,-0.53 -8.62,-5.09l0 -29.9 -23.63 0c-13.04,0 -20.94,3.23 -24.63,5.09l0 42.09c0,9.39 -3.69,14.48 -16.13,13.68l0 11.13c20.1,0.95 28.73,-7.52 28.73,-23.75l0 -34.95c1.96,-1.1 5.66,-2.17 12.44,-2.17l10.79 0 0 20.1c0,13.03 6.9,14.89 21.06,14.89 1.29,0 2.29,-0.95 2.29,-2.13l0 -6.84c0,-1.21 -1,-2.17 -2.29,-2.17zm-29.01 27.47l8.23 7.79 8.19 -7.79 -8.19 -7.75 -8.23 7.75zm69.21 -82.56l-8.22 -7.75 -8.19 7.75 8.19 7.79 8.22 -7.79zm23.91 55.09l-0.56 0c-5.94,-0.11 -8.62,-4.94 -8.62,-10.87l0 -5.89c0,-13.68 -7.1,-21.31 -22.95,-21.31 -10.87,0 -17.7,2.54 -21.79,4.18l0 10.98c6.78,-2.28 14.72,-3.61 20.22,-3.61 8.22,0 12.04,3.34 12.04,11.09l0 3.49c0,4.71 0.89,8.74 2.69,11.93l-45.3 0c-1.24,0.15 -2.09,0.95 -2.09,2.17l0 6.84c0,1.18 0.84,1.98 2.09,2.13l64.27 0 0 -11.13z"/>
   <path class="fil0" d="M27.65 38.22l-18.49 0 -2.85 10.72 -6.31 0 11.84 -45.78 13.15 0 11.83 45.78 -6.31 0 -2.87 -10.72zm-17.15 -5.66l15.83 0 -6.18 -24.01 -3.47 0 -6.18 24.01zm66.76 -7.5c0,5.68 -0.6,10.24 -1.81,13.73 -1.19,3.49 -3.07,6.06 -5.65,7.7 -2.56,1.64 -5.98,2.45 -10.23,2.45l-16.02 0 0 -45.78 16.02 0c4.78,0 8.46,0.92 11.04,2.79 2.58,1.87 4.33,4.36 5.26,7.49 0.93,3.13 1.4,7 1.4,11.62zm-6.52 0.13c0,-3.94 -0.36,-7.11 -1.09,-9.51 -0.74,-2.39 -1.91,-4.15 -3.52,-5.26 -1.62,-1.11 -3.81,-1.68 -6.56,-1.68l-9.63 0 0 34.61 9.63 0c4,0 6.86,-1.47 8.57,-4.43 1.73,-2.96 2.6,-7.53 2.6,-13.73zm11.37 -22.03l6.63 0 9.7 40.19 3.52 0 9.71 -40.19 6.65 0 -11.57 45.78 -13.15 0 -11.5 -45.78zm66.61 35.06l-18.49 0 -2.85 10.72 -6.31 0 11.83 -45.78 13.16 0 11.83 45.78 -6.31 0 -2.86 -10.72zm-17.15 -5.66l15.83 0 -6.18 -24.01 -3.47 0 -6.18 24.01zm67.5 -29.4l0 45.78 -11.18 0 -15.83 -40.2 -1.06 0 0 40.2 -6.39 0 0 -45.78 11.39 0 15.49 40.19 1.19 0 0 -40.19 6.39 0zm8.83 22.95c0,-5.68 0.49,-10.2 1.45,-13.58 0.98,-3.38 2.7,-5.91 5.17,-7.58 2.47,-1.68 5.95,-2.53 10.48,-2.53 3.68,0 7.91,0.53 12.76,1.6l-0.2 5.24c-4.2,-0.75 -7.97,-1.13 -11.29,-1.13 -3.33,0 -5.84,0.59 -7.52,1.78 -1.68,1.17 -2.81,3.07 -3.39,5.69 -0.59,2.62 -0.85,6.42 -0.79,11.37 0,4.3 0.28,7.62 0.83,9.94 0.55,2.32 1.68,4.07 3.39,5.26 1.72,1.17 4.32,1.76 7.8,1.76 2.92,0 6.57,-0.38 10.97,-1.13l0.2 5.4c-4.88,0.98 -8.97,1.47 -12.3,1.47 -4.73,0 -8.37,-0.87 -10.89,-2.63 -2.53,-1.75 -4.26,-4.32 -5.22,-7.66 -0.96,-3.35 -1.43,-7.79 -1.43,-13.28zm44.15 -17.37l0 14.24 17.94 0 0 5.52 -17.94 0 0 14.85 21.94 0 0 5.58 -28.32 0 0 -45.78 28.32 0 0 5.58 -21.94 0zm63.9 16.32c0,5.68 -0.6,10.24 -1.81,13.73 -1.19,3.49 -3.07,6.06 -5.65,7.7 -2.56,1.64 -5.97,2.45 -10.23,2.45l-16.02 0 0 -45.78 16.02 0c4.79,0 8.46,0.92 11.04,2.79 2.58,1.87 4.33,4.36 5.26,7.49 0.92,3.13 1.39,7 1.39,11.62zm-6.52 0.13c0,-3.94 -0.36,-7.11 -1.09,-9.51 -0.74,-2.39 -1.91,-4.15 -3.52,-5.26 -1.62,-1.11 -3.81,-1.68 -6.56,-1.68l-9.63 0 0 34.61 9.63 0c4,0 6.86,-1.47 8.57,-4.43 1.74,-2.96 2.6,-7.53 2.6,-13.73zm38.69 -16.37l-13.5 0 0 -5.66 33.24 0 0 5.66 -13.36 0 0 40.12 -6.39 0 0 -40.12zm32.25 -0.08l0 14.24 17.94 0 0 5.52 -17.94 0 0 14.85 21.94 0 0 5.58 -28.33 0 0 -45.78 28.33 0 0 5.58 -21.94 0zm28.39 17.37c0,-5.68 0.49,-10.2 1.45,-13.58 0.98,-3.38 2.7,-5.91 5.17,-7.58 2.47,-1.68 5.96,-2.53 10.48,-2.53 3.67,0 7.91,0.53 12.76,1.6l-0.21 5.24c-4.2,-0.75 -7.97,-1.13 -11.29,-1.13 -3.33,0 -5.84,0.59 -7.52,1.78 -1.68,1.17 -2.81,3.07 -3.39,5.69 -0.58,2.62 -0.85,6.42 -0.79,11.37 0,4.3 0.28,7.62 0.83,9.94 0.55,2.32 1.68,4.07 3.39,5.26 1.72,1.17 4.31,1.76 7.8,1.76 2.92,0 6.57,-0.38 10.97,-1.13l0.21 5.4c-4.88,0.98 -8.97,1.47 -12.31,1.47 -4.73,0 -8.37,-0.87 -10.89,-2.63 -2.53,-1.75 -4.26,-4.32 -5.22,-7.66 -0.96,-3.35 -1.43,-7.79 -1.43,-13.28zm71.81 -22.95l0 45.78 -6.33 0 0 -20.17 -21.33 0 0 20.17 -6.39 0 0 -45.78 6.39 0 0 19.95 21.33 0 0 -19.95 6.33 0zm45.15 0l0 45.78 -11.18 0 -15.83 -40.2 -1.06 0 0 40.2 -6.39 0 0 -45.78 11.38 0 15.49 40.19 1.19 0 0 -40.19 6.39 0zm8.7 23.08c0,-5.49 0.58,-9.98 1.75,-13.46 1.19,-3.49 3.11,-6.07 5.79,-7.79 2.69,-1.72 6.3,-2.56 10.81,-2.56 4.51,0 8.11,0.85 10.78,2.56 2.7,1.72 4.62,4.3 5.79,7.75 1.19,3.45 1.77,7.98 1.77,13.58 0,5.54 -0.58,9.99 -1.73,13.37 -1.15,3.38 -3.06,5.89 -5.71,7.52 -2.66,1.65 -6.27,2.46 -10.89,2.46 -4.58,0 -8.2,-0.81 -10.85,-2.46 -2.66,-1.64 -4.56,-4.17 -5.75,-7.56 -1.17,-3.4 -1.75,-7.87 -1.75,-13.41zm30.11 0.08c0,-4.4 -0.36,-7.93 -1.07,-10.57 -0.7,-2.64 -1.9,-4.58 -3.61,-5.84 -1.7,-1.26 -4.06,-1.91 -7.07,-1.91 -3.02,0 -5.37,0.64 -7.08,1.91 -1.72,1.26 -2.92,3.2 -3.64,5.83 -0.7,2.62 -1.06,6.11 -1.06,10.5 0,4.3 0.34,7.72 1.04,10.24 0.7,2.53 1.88,4.41 3.56,5.66 1.68,1.24 4.07,1.87 7.18,1.87 3.11,0 5.5,-0.58 7.18,-1.75 1.68,-1.19 2.87,-3.04 3.54,-5.56 0.7,-2.53 1.04,-5.98 1.04,-10.37zm40.76 16.95l0 5.66 -25.41 0 0 -45.78 6.39 0 0 40.11 19.02 0zm4.19 -17.03c0,-5.49 0.59,-9.98 1.75,-13.46 1.19,-3.49 3.11,-6.07 5.79,-7.79 2.7,-1.72 6.3,-2.56 10.82,-2.56 4.5,0 8.1,0.85 10.78,2.56 2.69,1.72 4.61,4.3 5.78,7.75 1.19,3.45 1.77,7.98 1.77,13.58 0,5.54 -0.58,9.99 -1.73,13.37 -1.15,3.38 -3.06,5.89 -5.71,7.52 -2.66,1.65 -6.28,2.46 -10.89,2.46 -4.58,0 -8.2,-0.81 -10.86,-2.46 -2.65,-1.64 -4.56,-4.17 -5.75,-7.56 -1.17,-3.4 -1.75,-7.87 -1.75,-13.41zm30.12 0.08c0,-4.4 -0.36,-7.93 -1.08,-10.57 -0.7,-2.64 -1.9,-4.58 -3.61,-5.84 -1.7,-1.26 -4.05,-1.91 -7.07,-1.91 -3.02,0 -5.37,0.64 -7.09,1.91 -1.72,1.26 -2.92,3.2 -3.64,5.83 -0.7,2.62 -1.06,6.11 -1.06,10.5 0,4.3 0.34,7.72 1.04,10.24 0.7,2.53 1.89,4.41 3.56,5.66 1.68,1.24 4.07,1.87 7.18,1.87 3.11,0 5.5,-0.58 7.18,-1.75 1.68,-1.19 2.87,-3.04 3.54,-5.56 0.7,-2.53 1.04,-5.98 1.04,-10.37zm13.43 -0.34c0,-5.54 0.57,-10.02 1.71,-13.43 1.15,-3.41 3.04,-5.96 5.61,-7.62 2.6,-1.68 6.09,-2.51 10.48,-2.51 4,0 8.35,0.45 13.04,1.34l2.32 0.45 -0.27 5.13c-5.44,-0.81 -10.08,-1.21 -13.89,-1.21 -3.44,0 -6.07,0.64 -7.84,1.91 -1.77,1.26 -2.98,3.19 -3.6,5.74 -0.62,2.54 -0.92,6.09 -0.92,10.67 0,4.39 0.34,7.83 1.02,10.33 0.7,2.51 1.91,4.34 3.62,5.49 1.73,1.15 4.19,1.74 7.33,1.74 3.02,0 5.77,-0.22 8.24,-0.66l0 -12.52 -6.58 0 0 -5.64 12.89 0 0 22.88c-5.84,1.08 -10.89,1.61 -15.15,1.61 -4.47,0 -8.03,-0.85 -10.67,-2.53 -2.64,-1.68 -4.52,-4.24 -5.65,-7.67 -1.13,-3.45 -1.69,-7.94 -1.69,-13.49zm51.98 3.93l-14.42 -26.74 7.11 0 10.52 20.43 10.42 -20.43 7.18 0 -14.42 26.74 0 19.03 -6.39 0 0 -19.03zm47.34 -21.17l0 14.24 17.94 0 0 5.52 -17.94 0 0 14.85 21.94 0 0 5.58 -28.33 0 0 -45.78 28.33 0 0 5.58 -21.94 0zm39.62 17.9l-13.83 -23.48 7.12 0 10.63 18.69 10.78 -18.69 6.71 0 -13.83 23.22 13.83 22.56 -7.11 0 -10.57 -18.03 -10.78 18.03 -6.78 0 13.83 -22.3zm27.66 -23.48l16.75 0c5.11,0 8.9,1.24 11.37,3.73 2.49,2.47 3.73,6.26 3.73,11.37 0,5.22 -1.28,9.19 -3.83,11.88 -2.54,2.68 -6.31,4.02 -11.27,4.02l-10.37 0 0 14.77 -6.39 0 0 -45.78zm16.7 25.4c5.75,0 8.63,-3.43 8.63,-10.3 0,-3.34 -0.68,-5.76 -2.06,-7.28 -1.38,-1.53 -3.56,-2.3 -6.58,-2.3l-10.31 0 0 19.88 10.31 0zm28.84 -19.82l0 14.24 17.94 0 0 5.52 -17.94 0 0 14.85 21.94 0 0 5.58 -28.32 0 0 -45.78 28.32 0 0 5.58 -21.94 0zm30.18 -5.58l17.15 0c5.07,0 8.84,1.17 11.35,3.52 2.51,2.36 3.75,5.93 3.75,10.72 0,6.73 -2.64,11.16 -7.92,13.3l8.13 18.24 -7 0 -7.37 -16.9 -11.7 0 0 16.9 -6.39 0 0 -45.78zm17.23 23.35c2.79,0 4.9,-0.75 6.35,-2.28 1.45,-1.53 2.17,-3.78 2.17,-6.7 0,-2.89 -0.72,-5.07 -2.17,-6.58 -1.45,-1.51 -3.58,-2.26 -6.43,-2.26l-10.76 0 0 17.82 10.84 0zm32.52 -17.69l-13.5 0 0 -5.66 33.25 0 0 5.66 -13.37 0 0 40.12 -6.39 0 0 -40.12zm26.2 39.52l-2.39 -0.4 0.66 -5.13c5.98,0.81 10.56,1.21 13.7,1.21 5.97,0 8.97,-2.73 8.97,-8.19 0,-1.51 -0.32,-2.72 -0.94,-3.62 -0.62,-0.93 -1.6,-1.66 -2.96,-2.2 -1.34,-0.55 -3.24,-1.09 -5.67,-1.62 -3.6,-0.85 -6.39,-1.8 -8.39,-2.83 -1.98,-1.04 -3.44,-2.38 -4.37,-4.02 -0.93,-1.64 -1.39,-3.81 -1.39,-6.47 0,-4.2 1.26,-7.37 3.78,-9.5 2.53,-2.13 6.26,-3.19 11.18,-3.19 1.81,0 3.77,0.11 5.86,0.34 2.11,0.21 4.9,0.61 8.35,1.19l-0.53 5.19c-6.07,-0.72 -10.46,-1.07 -13.16,-1.07 -6.09,0 -9.12,2.22 -9.12,6.66 0,1.64 0.34,2.94 1.04,3.87 0.7,0.93 1.79,1.7 3.3,2.3 1.5,0.59 3.78,1.24 6.84,1.96 3.19,0.79 5.67,1.68 7.44,2.66 1.77,0.96 3.07,2.22 3.88,3.79 0.83,1.55 1.25,3.58 1.25,6.11 0,4.7 -1.28,8.26 -3.83,10.66 -2.54,2.4 -6.26,3.58 -11.14,3.58 -3.05,0 -7.18,-0.41 -12.36,-1.26z"/>
  </g>
 </g>
</svg>
